<?xml version="1.0" encoding="UTF-8"?>
<!DOCTYPE svg PUBLIC "-//W3C//DTD SVG 1.1//EN" "http://www.w3.org/Graphics/SVG/1.1/DTD/svg11.dtd">
<svg xmlns="http://www.w3.org/2000/svg" version="1.1" width="1024px" height="1021px" style="shape-rendering:geometricPrecision; text-rendering:geometricPrecision; image-rendering:optimizeQuality; fill-rule:evenodd; clip-rule:evenodd" xmlns:xlink="http://www.w3.org/1999/xlink">
<g><path style="opacity:1" fill="#3b3b3a" d="M 470.5,397.5 C 470.5,399.167 470.5,400.833 470.5,402.5C 469.5,402.5 468.5,402.5 467.5,402.5C 467.973,388.524 463.639,376.357 454.5,366C 451.052,364.073 447.385,362.739 443.5,362C 433.172,361.5 422.839,361.334 412.5,361.5C 412.167,386.509 412.5,411.509 413.5,436.5C 421.435,442.135 430.102,446.135 439.5,448.5C 439.112,434.455 439.612,420.455 441,406.5C 441.77,405.402 442.603,405.402 443.5,406.5C 442.88,430.166 442.714,453.833 443,477.5C 444.376,482.755 445.209,488.088 445.5,493.5C 448.167,493.5 450.833,493.5 453.5,493.5C 467.492,494.368 481.492,494.534 495.5,494C 500.712,489.948 506.045,486.115 511.5,482.5C 512.404,483.209 512.737,484.209 512.5,485.5C 509.264,488.797 505.597,491.63 501.5,494C 505.152,494.499 508.818,494.665 512.5,494.5C 512.802,497.059 512.468,499.393 511.5,501.5C 510.377,500.243 509.711,500.576 509.5,502.5C 508.532,504.607 508.198,506.941 508.5,509.5C 507.5,509.5 506.5,509.5 505.5,509.5C 505.813,506.753 505.48,504.086 504.5,501.5C 503.914,501.709 503.414,502.043 503,502.5C 502.503,504.81 502.337,507.143 502.5,509.5C 501.041,509.567 499.708,509.234 498.5,508.5C 497.9,504.484 498.9,500.984 501.5,498C 469.496,497.647 437.496,497.147 405.5,496.5C 405.5,495.5 405.5,494.5 405.5,493.5C 410.833,493.5 416.167,493.5 421.5,493.5C 427.167,493.5 432.833,493.5 438.5,493.5C 438.5,490.5 438.5,487.5 438.5,484.5C 438.666,474.161 438.5,463.828 438,453.5C 427.536,449.173 417.703,443.84 408.5,437.5C 408.5,412.167 408.5,386.833 408.5,361.5C 403.968,361.182 399.634,361.515 395.5,362.5C 395.704,379.795 387.204,387.462 370,385.5C 358.709,386.273 350.209,381.939 344.5,372.5C 343.268,368.305 341.935,364.138 340.5,360C 335.177,359.501 329.844,359.334 324.5,359.5C 324.5,385.5 324.5,411.5 324.5,437.5C 316.352,442.236 307.686,445.903 298.5,448.5C 297.596,447.791 297.263,446.791 297.5,445.5C 305.166,442.585 312.666,439.251 320,435.5C 320.5,409.835 320.667,384.169 320.5,358.5C 312.833,358.5 305.167,358.5 297.5,358.5C 297.5,357.5 297.5,356.5 297.5,355.5C 308.833,355.5 320.167,355.5 331.5,355.5C 333.167,355.5 334.833,355.5 336.5,355.5C 335.813,341.887 337.313,328.553 341,315.5C 351.05,298.149 364.217,295.316 380.5,307C 382.278,307.704 384.112,308.204 386,308.5C 389.471,307.698 392.471,306.032 395,303.5C 398.189,308.738 398.189,314.071 395,319.5C 392.778,321.385 390.944,323.551 389.5,326C 391.371,331.112 391.704,336.278 390.5,341.5C 394.568,346.039 396.234,351.372 395.5,357.5C 411.837,357.333 428.17,357.5 444.5,358C 455.057,359.692 462.224,365.525 466,375.5C 468.719,382.594 470.219,389.927 470.5,397.5 Z"/></g>
<g><path style="opacity:1" fill="#393939" d="M 816.5,364.5 C 812.167,364.5 807.833,364.5 803.5,364.5C 803.171,377.344 803.505,390.011 804.5,402.5C 865.672,429.852 904.172,476.185 920,541.5C 930.108,598.728 919.441,651.728 888,700.5C 882.924,708.247 877.091,715.413 870.5,722C 881.743,722.178 892.91,722.678 904,723.5C 904.667,763.833 904.667,804.167 904,844.5C 903.617,845.056 903.117,845.389 902.5,845.5C 791.5,845.5 680.5,845.5 569.5,845.5C 568.167,845.5 567.5,844.833 567.5,843.5C 567.5,804.833 567.5,766.167 567.5,727.5C 568.833,727.5 570.167,727.5 571.5,727.5C 571.5,765.5 571.5,803.5 571.5,841.5C 681.001,841.833 790.335,841.499 899.5,840.5C 899.5,802.833 899.5,765.167 899.5,727.5C 809.167,727.5 718.833,727.5 628.5,727.5C 626.393,726.532 624.059,726.198 621.5,726.5C 621.5,725.5 621.5,724.5 621.5,723.5C 702.501,723.667 783.501,723.5 864.5,723C 916.955,661.926 931.455,592.759 908,515.5C 870.863,431 806.03,390.167 713.5,393C 699.206,394.492 685.206,397.325 671.5,401.5C 668.615,401.806 665.948,401.473 663.5,400.5C 664.261,399.609 665.261,398.942 666.5,398.5C 667.499,387.52 667.832,376.52 667.5,365.5C 662.767,365.777 658.1,365.443 653.5,364.5C 652.603,360.036 651.937,355.536 651.5,351C 652.077,342.272 652.744,333.605 653.5,325C 708.499,324.5 763.499,324.333 818.5,324.5C 819.148,338.209 818.481,351.542 816.5,364.5 Z"/></g>
<g><path style="opacity:1" fill="#f6a79c" d="M 373.5,328.5 C 374.2,332.798 374.533,337.131 374.5,341.5C 367.159,341.666 359.826,341.5 352.5,341C 348.623,340.743 344.957,339.743 341.5,338C 348.306,335.024 353.806,330.524 358,324.5C 362.924,326.785 368.09,328.118 373.5,328.5 Z"/></g>
<g><path style="opacity:1" fill="#cd817c" d="M 374.5,341.5 C 374.533,337.131 374.2,332.798 373.5,328.5C 377.507,327.996 381.507,327.83 385.5,328C 386.467,332.401 386.8,336.901 386.5,341.5C 382.5,341.5 378.5,341.5 374.5,341.5 Z"/></g>
<g><path style="opacity:1" fill="#a8a8a9" d="M 657.5,329.5 C 709.5,329.5 761.5,329.5 813.5,329.5C 813.5,339.5 813.5,349.5 813.5,359.5C 761.5,359.5 709.5,359.5 657.5,359.5C 657.5,349.5 657.5,339.5 657.5,329.5 Z"/></g>
<g><path style="opacity:1" fill="#4f4b4b" d="M 361.5,335.5 C 362.833,335.5 364.167,335.5 365.5,335.5C 365.5,336.5 365.5,337.5 365.5,338.5C 364.167,338.5 362.833,338.5 361.5,338.5C 361.5,337.5 361.5,336.5 361.5,335.5 Z"/></g>
<g><path style="opacity:1" fill="#393636" d="M 377.5,335.5 C 378.5,335.5 379.5,335.5 380.5,335.5C 380.5,336.5 380.5,337.5 380.5,338.5C 379.5,338.5 378.5,338.5 377.5,338.5C 377.5,337.5 377.5,336.5 377.5,335.5 Z"/></g>
<g><path style="opacity:0.08" fill="#ced1e1" d="M 649.5,345.5 C 650.874,347.517 650.707,349.517 649,351.5C 649.135,349.575 649.302,347.575 649.5,345.5 Z"/></g>
<g><path style="opacity:1" fill="#cc8c84" d="M 364.5,349.5 C 368.91,350.462 373.243,350.795 377.5,350.5C 374.048,352.39 370.382,352.89 366.5,352C 365.244,351.583 364.577,350.75 364.5,349.5 Z"/></g>
<g><path style="opacity:1" fill="#40403f" d="M 331.5,355.5 C 320.167,355.5 308.833,355.5 297.5,355.5C 297.5,356.5 297.5,357.5 297.5,358.5C 276.164,358.333 254.831,358.5 233.5,359C 208.347,362.132 200.18,375.632 209,399.5C 224.527,431.485 243.027,461.485 264.5,489.5C 272.149,483.848 279.482,477.848 286.5,471.5C 278.372,451.284 270.539,430.951 263,410.5C 260.824,410.012 258.991,409.012 257.5,407.5C 259,407.167 260.5,406.833 262,406.5C 267.492,407.083 272.992,407.583 278.5,408C 279.323,420.425 279.823,432.925 280,445.5C 280.739,447.221 281.573,448.887 282.5,450.5C 287.45,448.628 292.45,446.961 297.5,445.5C 297.263,446.791 297.596,447.791 298.5,448.5C 295.5,449.833 292.5,451.167 289.5,452.5C 287.173,452.247 285.173,452.914 283.5,454.5C 286.495,460.984 288.995,467.651 291,474.5C 294.292,479.583 297.459,484.75 300.5,490C 303.146,490.497 305.813,490.664 308.5,490.5C 338.429,491.461 368.429,492.128 398.5,492.5C 400.369,493.165 402.369,493.831 404.5,494.5C 392.185,495.499 379.851,495.832 367.5,495.5C 344.159,495.361 320.826,495.194 297.5,495C 294.117,498.444 292.784,502.61 293.5,507.5C 330.499,507.933 367.499,508.267 404.5,508.5C 368.011,510.165 331.345,511.165 294.5,511.5C 288.61,511.325 282.943,511.325 277.5,511.5C 276.5,511.5 275.5,511.5 274.5,511.5C 273.448,509.744 271.781,509.077 269.5,509.5C 264.5,509.5 259.5,509.5 254.5,509.5C 254.5,502.833 254.5,496.167 254.5,489.5C 255.873,489.657 257.207,489.49 258.5,489C 238.362,461.914 220.862,433.081 206,402.5C 195.087,374.414 204.587,358.58 234.5,355C 267.003,354.169 299.336,354.336 331.5,355.5 Z"/></g>
<g><path style="opacity:1" fill="#fdf3a0" d="M 297.5,358.5 C 305.167,358.5 312.833,358.5 320.5,358.5C 320.667,384.169 320.5,409.835 320,435.5C 312.666,439.251 305.166,442.585 297.5,445.5C 292.45,446.961 287.45,448.628 282.5,450.5C 281.573,448.887 280.739,447.221 280,445.5C 279.823,432.925 279.323,420.425 278.5,408C 272.992,407.583 267.492,407.083 262,406.5C 260.5,406.833 259,407.167 257.5,407.5C 258.991,409.012 260.824,410.012 263,410.5C 270.539,430.951 278.372,451.284 286.5,471.5C 279.482,477.848 272.149,483.848 264.5,489.5C 243.027,461.485 224.527,431.485 209,399.5C 200.18,375.632 208.347,362.132 233.5,359C 254.831,358.5 276.164,358.333 297.5,358.5 Z"/></g>
<g><path style="opacity:1" fill="#b7b7b7" d="M 344.5,372.5 C 338.135,368.895 331.968,364.895 326,360.5C 325.832,386.337 325.332,412.003 324.5,437.5C 324.5,411.5 324.5,385.5 324.5,359.5C 329.844,359.334 335.177,359.501 340.5,360C 341.935,364.138 343.268,368.305 344.5,372.5 Z"/></g>
<g><path style="opacity:1" fill="#969696" d="M 657.5,329.5 C 709.664,328.501 761.997,328.168 814.5,328.5C 814.5,339.167 814.5,349.833 814.5,360.5C 761.997,360.832 709.664,360.499 657.5,359.5C 709.5,359.5 761.5,359.5 813.5,359.5C 813.5,349.5 813.5,339.5 813.5,329.5C 761.5,329.5 709.5,329.5 657.5,329.5 Z"/></g>
<g><path style="opacity:1" fill="#f3f3f3" d="M 344.5,372.5 C 350.209,381.939 358.709,386.273 370,385.5C 387.204,387.462 395.704,379.795 395.5,362.5C 399.5,362.5 403.5,362.5 407.5,362.5C 407.169,387.672 407.502,412.672 408.5,437.5C 417.703,443.84 427.536,449.173 438,453.5C 438.5,463.828 438.666,474.161 438.5,484.5C 437.527,486.948 437.194,489.615 437.5,492.5C 432.167,492.5 426.833,492.5 421.5,492.5C 413.833,492.5 406.167,492.5 398.5,492.5C 368.429,492.128 338.429,491.461 308.5,490.5C 302.167,477.833 295.833,465.167 289.5,452.5C 292.5,451.167 295.5,449.833 298.5,448.5C 307.686,445.903 316.352,442.236 324.5,437.5C 325.332,412.003 325.832,386.337 326,360.5C 331.968,364.895 338.135,368.895 344.5,372.5 Z"/></g>
<g><path style="opacity:1" fill="#fdf3a0" d="M 467.5,402.5 C 470.746,425.468 473.746,448.468 476.5,471.5C 473.5,471.5 470.5,471.5 467.5,471.5C 467.5,472.5 467.5,473.5 467.5,474.5C 482.951,475.681 498.284,477.681 513.5,480.5C 512.757,481.182 512.091,481.849 511.5,482.5C 506.045,486.115 500.712,489.948 495.5,494C 481.492,494.534 467.492,494.368 453.5,493.5C 451.759,472.213 450.259,450.88 449,429.5C 446.087,421.977 444.254,414.31 443.5,406.5C 442.603,405.402 441.77,405.402 441,406.5C 439.612,420.455 439.112,434.455 439.5,448.5C 430.102,446.135 421.435,442.135 413.5,436.5C 412.5,411.509 412.167,386.509 412.5,361.5C 422.839,361.334 433.172,361.5 443.5,362C 447.385,362.739 451.052,364.073 454.5,366C 463.639,376.357 467.973,388.524 467.5,402.5 Z"/></g>
<g><path style="opacity:1" fill="#a7a7a8" d="M 799.5,365.5 C 757.167,365.5 714.833,365.5 672.5,365.5C 671.858,376.221 672.525,386.554 674.5,396.5C 673.791,397.404 672.791,397.737 671.5,397.5C 671.5,386.5 671.5,375.5 671.5,364.5C 714.337,364.168 757.003,364.501 799.5,365.5 Z"/></g>
<g><path style="opacity:1" fill="#cbcbcb" d="M 799.5,365.5 C 799.5,377.167 799.5,388.833 799.5,400.5C 758.212,386.111 716.545,384.778 674.5,396.5C 672.525,386.554 671.858,376.221 672.5,365.5C 714.833,365.5 757.167,365.5 799.5,365.5 Z"/></g>
<g><path style="opacity:0.443" fill="#a1a1a1" d="M 816.5,364.5 C 812.702,365.483 808.702,365.817 804.5,365.5C 804.5,377.833 804.5,390.167 804.5,402.5C 803.505,390.011 803.171,377.344 803.5,364.5C 807.833,364.5 812.167,364.5 816.5,364.5 Z"/></g>
<g><path style="opacity:1" fill="#a9a9a9" d="M 621.5,723.5 C 616.489,723.666 611.489,723.499 606.5,723C 563.85,673.785 546.35,616.618 554,551.5C 556,539 559.166,526.833 563.5,515C 580.177,514.167 596.843,514.334 613.5,515.5C 615.308,519.649 618.308,522.315 622.5,523.5C 625.453,524.004 628.286,525.004 631,526.5C 634.612,536.391 639.279,545.724 645,554.5C 646.825,555.103 648.659,555.77 650.5,556.5C 635.4,600.415 641.066,641.415 667.5,679.5C 687.822,680.5 708.156,680.833 728.5,680.5C 753.509,680.833 778.509,680.5 803.5,679.5C 826.893,646.367 834.06,610.033 825,570.5C 810.253,521.756 777.419,496.256 726.5,494C 719.59,487.765 714.257,480.432 710.5,472C 709.216,471.316 708.049,471.483 707,472.5C 704.405,477.951 702.405,483.618 701,489.5C 693.915,484.047 692.248,477.38 696,469.5C 700.621,464.599 703.288,458.932 704,452.5C 702.681,450.513 700.848,449.346 698.5,449C 681.921,446.57 665.254,445.903 648.5,447C 644.232,447.534 640.232,448.867 636.5,451C 635.426,451.739 634.759,452.739 634.5,454C 637.984,460.157 641.484,466.323 645,472.5C 646.125,477.399 645.291,481.899 642.5,486C 635.242,485.979 628.576,487.813 622.5,491.5C 620.513,492.164 618.846,493.331 617.5,495C 602.156,495.833 586.822,495.666 571.5,494.5C 592.078,449.582 625.412,418.582 671.5,401.5C 685.206,397.325 699.206,394.492 713.5,393C 806.03,390.167 870.863,431 908,515.5C 931.455,592.759 916.955,661.926 864.5,723C 783.501,723.5 702.501,723.667 621.5,723.5 Z"/></g>
<g><path style="opacity:1" fill="#c5c6c6" d="M 395.5,362.5 C 399.634,361.515 403.968,361.182 408.5,361.5C 408.5,386.833 408.5,412.167 408.5,437.5C 407.502,412.672 407.169,387.672 407.5,362.5C 403.5,362.5 399.5,362.5 395.5,362.5 Z"/></g>
<g><path style="opacity:1" fill="#fafafa" d="M 267.5,412.5 C 269.948,411.527 272.615,411.194 275.5,411.5C 275.666,418.175 275.5,424.842 275,431.5C 272.446,425.078 269.946,418.745 267.5,412.5 Z"/></g>
<g><path style="opacity:1" fill="#b7b06e" d="M 443.5,406.5 C 444.254,414.31 446.087,421.977 449,429.5C 450.259,450.88 451.759,472.213 453.5,493.5C 450.833,493.5 448.167,493.5 445.5,493.5C 445.209,488.088 444.376,482.755 443,477.5C 442.714,453.833 442.88,430.166 443.5,406.5 Z"/></g>
<g><path style="opacity:1" fill="#464646" d="M 470.5,397.5 C 474.146,421.993 477.48,446.659 480.5,471.5C 494.246,472.726 507.912,474.559 521.5,477C 527.299,481.622 531.632,487.289 534.5,494C 545.167,494.667 555.833,494.667 566.5,494C 582.018,459.645 605.684,432.312 637.5,412C 645.846,407.324 654.513,403.491 663.5,400.5C 665.948,401.473 668.615,401.806 671.5,401.5C 625.412,418.582 592.078,449.582 571.5,494.5C 586.822,495.666 602.156,495.833 617.5,495C 618.846,493.331 620.513,492.164 622.5,491.5C 622.5,492.833 622.5,494.167 622.5,495.5C 619.483,498.198 617.483,501.531 616.5,505.5C 615.549,506.919 615.216,508.585 615.5,510.5C 614.5,510.5 613.5,510.5 612.5,510.5C 612.5,508.833 612.5,507.167 612.5,505.5C 612.472,503.418 613.139,501.584 614.5,500C 591.998,499.6 569.498,499.1 547,498.5C 541.167,498.833 535.333,499.167 529.5,499.5C 530.482,502.096 531.149,504.762 531.5,507.5C 531.179,509.048 530.179,509.715 528.5,509.5C 527.813,506.088 526.813,502.754 525.5,499.5C 524.726,498.289 523.893,498.289 523,499.5C 522.034,504.773 523.534,509.106 527.5,512.5C 527.56,513.043 527.893,513.376 528.5,513.5C 557.677,511.519 587.01,510.852 616.5,511.5C 617.166,515.846 619.499,518.846 623.5,520.5C 622.596,521.209 622.263,522.209 622.5,523.5C 618.308,522.315 615.308,519.649 613.5,515.5C 596.843,514.334 580.177,514.167 563.5,515C 559.166,526.833 556,539 554,551.5C 546.35,616.618 563.85,673.785 606.5,723C 611.489,723.499 616.489,723.666 621.5,723.5C 621.5,724.5 621.5,725.5 621.5,726.5C 624.059,726.198 626.393,726.532 628.5,727.5C 609.833,727.5 591.167,727.5 572.5,727.5C 572.167,727.5 571.833,727.5 571.5,727.5C 570.167,727.5 568.833,727.5 567.5,727.5C 567.5,766.167 567.5,804.833 567.5,843.5C 566.335,804.002 566.169,764.335 567,724.5C 567.383,723.944 567.883,723.611 568.5,723.5C 579.505,723.667 590.505,723.5 601.5,723C 600.956,722.283 600.289,721.783 599.5,721.5C 568.658,685.773 551.492,644.107 548,596.5C 546.012,568.737 549.512,541.737 558.5,515.5C 559.043,515.44 559.376,515.107 559.5,514.5C 550.675,513.179 542.009,513.179 533.5,514.5C 531.749,517.195 529.416,517.861 526.5,516.5C 522.484,518.025 518.317,519.025 514,519.5C 513.235,519.43 512.735,519.097 512.5,518.5C 512.5,517.5 512.5,516.5 512.5,515.5C 513.376,515.631 514.043,515.298 514.5,514.5C 512.876,510.299 511.876,505.966 511.5,501.5C 512.468,499.393 512.802,497.059 512.5,494.5C 531.988,497.748 534.322,493.415 519.5,481.5C 517.132,482.889 514.799,484.222 512.5,485.5C 512.737,484.209 512.404,483.209 511.5,482.5C 512.091,481.849 512.757,481.182 513.5,480.5C 498.284,477.681 482.951,475.681 467.5,474.5C 467.5,473.5 467.5,472.5 467.5,471.5C 470.5,471.5 473.5,471.5 476.5,471.5C 473.746,448.468 470.746,425.468 467.5,402.5C 468.5,402.5 469.5,402.5 470.5,402.5C 470.5,400.833 470.5,399.167 470.5,397.5 Z"/></g>
<g><path style="opacity:0.999" fill="#434343" d="M 176.5,468.5 C 175.791,467.596 174.791,467.263 173.5,467.5C 173.5,469.5 173.5,471.5 173.5,473.5C 170.96,480.666 167.126,481.333 162,475.5C 161.333,482.5 161.333,489.5 162,496.5C 169.881,490.423 177.881,490.09 186,495.5C 190.475,505.901 186.975,511.901 175.5,513.5C 170.125,512.77 165.625,510.437 162,506.5C 162.017,525.509 162.684,544.509 164,563.5C 172.507,561.584 178.84,564.584 183,572.5C 185.119,567.312 186.952,561.979 188.5,556.5C 178.074,557.342 175.407,553.009 180.5,543.5C 169.622,537.214 169.955,531.548 181.5,526.5C 177.716,522.254 177.716,518.088 181.5,514C 185.042,513.149 188.375,513.649 191.5,515.5C 197.55,504.537 203.05,504.871 208,516.5C 214.105,511.76 218.605,512.927 221.5,520C 220.885,522.515 219.885,524.848 218.5,527C 230.258,532.475 230.258,537.808 218.5,543C 221.979,547.145 222.312,551.478 219.5,556C 215.207,557.805 211.373,556.972 208,553.5C 206.487,557.526 203.82,560.526 200,562.5C 196.757,561.592 194.423,559.592 193,556.5C 190.998,563.173 189.332,569.839 188,576.5C 193.505,575.127 199.005,575.293 204.5,577C 212.985,584.468 212.485,590.968 203,596.5C 198.919,598.015 195.086,597.515 191.5,595C 188.667,592.833 186.167,590.333 184,587.5C 182.654,592.552 181.154,597.552 179.5,602.5C 184.118,604.429 188.784,606.262 193.5,608C 198.218,611.343 199.718,615.843 198,621.5C 192.869,633.556 189.369,646.056 187.5,659C 187.894,665.758 189.394,672.258 192,678.5C 198.645,689.123 203.645,700.456 207,712.5C 207.776,721.874 207.442,731.207 206,740.5C 202.771,758.082 198.604,775.415 193.5,792.5C 191.363,796.396 189.697,800.562 188.5,805C 172.258,810.477 155.925,810.81 139.5,806C 137.592,800.772 135.592,795.606 133.5,790.5C 126.34,768.201 121.673,745.368 119.5,722C 119.461,714.195 120.961,706.695 124,699.5C 127.745,691.676 131.745,684.009 136,676.5C 138.96,668.743 139.96,660.743 139,652.5C 136.076,641.727 132.743,631.06 129,620.5C 128.303,612.148 132.136,606.648 140.5,604C 139.937,599.886 138.604,599.552 136.5,603C 129.517,608.047 123.017,607.547 117,601.5C 113.766,592.632 116.766,587.299 126,585.5C 130.033,585.844 133.7,587.178 137,589.5C 136.229,582.867 135.229,576.2 134,569.5C 130.603,572.981 126.936,573.314 123,570.5C 122.209,569.255 121.709,567.922 121.5,566.5C 121.719,565.325 121.386,564.325 120.5,563.5C 119.893,563.624 119.56,563.957 119.5,564.5C 116.184,567.41 112.517,567.91 108.5,566C 105.715,561.807 106.048,557.807 109.5,554C 101.214,551.46 99.547,546.793 104.5,540C 106.5,539.333 108.5,538.667 110.5,538C 107.467,534.611 106.801,530.778 108.5,526.5C 112.299,523.872 116.132,523.872 120,526.5C 122.026,518.982 126.359,516.982 133,520.5C 134.275,522.717 135.275,525.051 136,527.5C 139.539,524.39 143.372,523.89 147.5,526C 150.345,530.264 150.012,534.264 146.5,538C 158.113,542.883 158.446,548.383 147.5,554.5C 150.435,557.887 150.935,561.554 149,565.5C 146.104,567.745 142.937,568.078 139.5,566.5C 139.329,573.842 140.163,581.176 142,588.5C 142.308,589.308 142.808,589.975 143.5,590.5C 148.195,586.824 153.528,585.157 159.5,585.5C 158.976,581.07 157.976,576.736 156.5,572.5C 156.899,570.803 157.399,569.137 158,567.5C 158.518,546.823 158.185,526.157 157,505.5C 149.202,511.813 141.535,511.813 134,505.5C 130.927,493.233 135.76,487.733 148.5,489C 150.953,489.959 153.286,491.126 155.5,492.5C 155.783,493.289 156.283,493.956 157,494.5C 157.815,487.746 157.648,481.746 156.5,476.5C 151.827,480.921 147.994,480.255 145,474.5C 144.289,472.101 144.456,469.768 145.5,467.5C 142.856,466.604 140.19,465.771 137.5,465C 133.994,459.271 135.327,454.938 141.5,452C 136.921,448.721 135.421,444.554 137,439.5C 139.969,436.773 143.303,436.106 147,437.5C 148.948,425.266 154.114,423.599 162.5,432.5C 169.054,425.228 174.054,426.062 177.5,435C 176.591,436.789 176.424,438.623 177,440.5C 180.197,439.663 183.197,440.33 186,442.5C 187.301,444.365 187.635,446.365 187,448.5C 185.692,450.641 184.192,452.641 182.5,454.5C 184.192,456.359 185.692,458.359 187,460.5C 187.117,467.862 183.617,470.528 176.5,468.5 Z M 163.5,583.5 C 169.249,584.475 174.916,584.808 180.5,584.5C 178.206,590.343 176.54,596.343 175.5,602.5C 171.78,602.436 168.114,601.936 164.5,601C 165.718,599.562 166.385,597.895 166.5,596C 164.68,592.02 163.68,587.854 163.5,583.5 Z"/></g>
<g><path style="opacity:1" fill="#ec9adc" d="M 152.5,431.5 C 154.582,431.472 156.416,432.139 158,433.5C 159.622,436.987 160.455,440.654 160.5,444.5C 156.27,445.437 153.77,443.771 153,439.5C 152.503,436.854 152.336,434.187 152.5,431.5 Z"/></g>
<g><path style="opacity:1" fill="#ed99dd" d="M 168.5,432.5 C 169.833,432.5 171.167,432.5 172.5,432.5C 173.353,438.645 171.019,442.978 165.5,445.5C 163.541,440.367 164.541,436.033 168.5,432.5 Z"/></g>
<g><path style="opacity:1" fill="#e997d9" d="M 140.5,441.5 C 147.915,440.355 152.248,443.355 153.5,450.5C 148.497,450.915 144.33,449.248 141,445.5C 140.51,444.207 140.343,442.873 140.5,441.5 Z"/></g>
<g><path style="opacity:1" fill="#ea99da" d="M 173.5,444.5 C 176.187,444.336 178.854,444.503 181.5,445C 182.89,447.994 181.89,449.994 178.5,451C 175.558,452.124 172.558,452.458 169.5,452C 168.483,450.951 168.316,449.784 169,448.5C 170.667,447.267 172.167,445.933 173.5,444.5 Z"/></g>
<g><path style="opacity:1" fill="#ececec" d="M 158.5,448.5 C 165.004,448.138 166.671,450.638 163.5,456C 157.593,456.746 155.927,454.246 158.5,448.5 Z"/></g>
<g><path style="opacity:1" fill="#adadae" d="M 289.5,452.5 C 295.833,465.167 302.167,477.833 308.5,490.5C 305.813,490.664 303.146,490.497 300.5,490C 297.459,484.75 294.292,479.583 291,474.5C 288.995,467.651 286.495,460.984 283.5,454.5C 285.173,452.914 287.173,452.247 289.5,452.5 Z"/></g>
<g><path style="opacity:1" fill="#e496d5" d="M 144.5,454.5 C 156.29,453.559 157.29,456.059 147.5,462C 138.429,462.37 137.429,459.87 144.5,454.5 Z"/></g>
<g><path style="opacity:1" fill="#ec97dc" d="M 168.5,455.5 C 173.65,455.531 178.15,457.197 182,460.5C 182.49,461.793 182.657,463.127 182.5,464.5C 175.187,465.508 170.521,462.508 168.5,455.5 Z"/></g>
<g><path style="opacity:1" fill="#eb98db" d="M 156.5,460.5 C 157.693,460.97 158.36,461.97 158.5,463.5C 157.775,467.45 156.108,470.95 153.5,474C 152.207,474.49 150.873,474.657 149.5,474.5C 149.337,472.143 149.503,469.81 150,467.5C 151.862,464.833 154.028,462.5 156.5,460.5 Z"/></g>
<g><path style="opacity:1" fill="#e898d8" d="M 164.5,459.5 C 169.074,462.65 170.907,466.983 170,472.5C 167.724,475.064 165.724,474.73 164,471.5C 161.947,467.257 162.114,463.257 164.5,459.5 Z"/></g>
<g><path style="opacity:1" fill="#f0dfc0" d="M 709.5,511.5 C 706.427,525.219 700.927,537.886 693,549.5C 685.568,551.928 677.901,552.928 670,552.5C 662.422,552.609 654.922,551.942 647.5,550.5C 642.515,542.698 638.182,534.531 634.5,526C 644.5,525.667 654.5,525.333 664.5,525C 666.667,522.167 668.833,519.333 671,516.5C 672.009,514.975 672.509,513.308 672.5,511.5C 658.5,511.5 644.5,511.5 630.5,511.5C 630.408,507.941 631.241,504.608 633,501.5C 636.667,496.5 641,492.167 646,488.5C 652.588,478.954 651.755,470.121 643.5,462C 658.801,462.584 674.134,462.584 689.5,462C 691.83,460.655 694.163,460.488 696.5,461.5C 691.155,467.177 688.988,473.844 690,481.5C 691.586,483.67 692.92,486.004 694,488.5C 700.43,492.929 705.43,498.595 709,505.5C 709.495,507.473 709.662,509.473 709.5,511.5 Z"/></g>
<g><path style="opacity:0.384" fill="#a9a9a9" d="M 176.5,468.5 C 174.972,469.802 173.972,471.469 173.5,473.5C 173.5,471.5 173.5,469.5 173.5,467.5C 174.791,467.263 175.791,467.596 176.5,468.5 Z"/></g>
<g><path style="opacity:1" fill="#fba99e" d="M 286.5,476.5 C 290.327,480.283 293.327,484.783 295.5,490C 291.073,494.917 289.073,500.75 289.5,507.5C 278.792,507.785 271.125,503.119 266.5,493.5C 273.186,487.811 279.853,482.144 286.5,476.5 Z"/></g>
<g><path style="opacity:1" fill="#faa99f" d="M 512.5,494.5 C 508.818,494.665 505.152,494.499 501.5,494C 505.597,491.63 509.264,488.797 512.5,485.5C 514.799,484.222 517.132,482.889 519.5,481.5C 534.322,493.415 531.988,497.748 512.5,494.5 Z"/></g>
<g><path style="opacity:0.143" fill="#bababa" d="M 155.5,492.5 C 156.488,487.36 156.821,482.026 156.5,476.5C 157.648,481.746 157.815,487.746 157,494.5C 156.283,493.956 155.783,493.289 155.5,492.5 Z"/></g>
<g><path style="opacity:1" fill="#9c9c9c" d="M 438.5,484.5 C 438.5,487.5 438.5,490.5 438.5,493.5C 432.833,493.5 427.167,493.5 421.5,493.5C 421.5,493.167 421.5,492.833 421.5,492.5C 426.833,492.5 432.167,492.5 437.5,492.5C 437.194,489.615 437.527,486.948 438.5,484.5 Z"/></g>
<g><path style="opacity:1" fill="#75ad8b" d="M 139.5,493.5 C 145.626,492.467 150.959,493.967 155.5,498C 151.106,498.303 146.773,498.97 142.5,500C 141.167,501 141.167,502 142.5,503C 146.121,502.595 149.787,502.595 153.5,503C 148.672,505.728 143.672,506.061 138.5,504C 135.711,500.225 136.045,496.725 139.5,493.5 Z"/></g>
<g><path style="opacity:1" fill="#c8c8c8" d="M 258.5,493.5 C 259.978,493.238 261.311,493.571 262.5,494.5C 264.055,498.386 266.388,501.72 269.5,504.5C 265.893,505.489 262.226,505.823 258.5,505.5C 258.5,501.5 258.5,497.5 258.5,493.5 Z"/></g>
<g><path style="opacity:1" fill="#666667" d="M 398.5,492.5 C 406.167,492.5 413.833,492.5 421.5,492.5C 421.5,492.833 421.5,493.167 421.5,493.5C 416.167,493.5 410.833,493.5 405.5,493.5C 405.5,494.5 405.5,495.5 405.5,496.5C 392.656,496.829 379.989,496.495 367.5,495.5C 379.851,495.832 392.185,495.499 404.5,494.5C 402.369,493.831 400.369,493.165 398.5,492.5 Z"/></g>
<g><path style="opacity:1" fill="#393938" d="M 728.5,680.5 C 728.5,679.167 728.5,677.833 728.5,676.5C 730.527,676.662 732.527,676.495 734.5,676C 727.41,662.293 726.576,648.126 732,633.5C 732.953,631.408 734.286,631.075 736,632.5C 737.339,635.881 738.672,639.214 740,642.5C 739.926,634.989 740.926,627.656 743,620.5C 750.012,609.476 755.679,597.809 760,585.5C 761.938,584.14 763.604,584.473 765,586.5C 771.004,595.848 772.171,605.848 768.5,616.5C 767.357,619.976 767.19,623.642 768,627.5C 768.717,626.956 769.217,626.289 769.5,625.5C 771.158,621.328 773.825,617.828 777.5,615C 778.635,614.251 779.635,614.417 780.5,615.5C 787.15,627.133 792.983,639.133 798,651.5C 799.19,660.574 797.023,668.741 791.5,676C 794.5,676.667 797.5,676.667 800.5,676C 818.828,651.526 826.661,624.026 824,593.5C 819.567,582.75 813.9,572.75 807,563.5C 806.31,578.061 802.144,591.395 794.5,603.5C 793.167,603.5 791.833,603.5 790.5,603.5C 792.508,579.218 785.675,557.885 770,539.5C 757.056,526.217 743.223,514.05 728.5,503C 721.246,495.75 714.746,487.917 709,479.5C 707.525,483.398 706.358,487.398 705.5,491.5C 708.162,495.681 710.662,500.014 713,504.5C 713.497,506.81 713.663,509.143 713.5,511.5C 712.167,511.5 710.833,511.5 709.5,511.5C 709.662,509.473 709.495,507.473 709,505.5C 705.43,498.595 700.43,492.929 694,488.5C 692.92,486.004 691.586,483.67 690,481.5C 688.988,473.844 691.155,467.177 696.5,461.5C 694.163,460.488 691.83,460.655 689.5,462C 674.134,462.584 658.801,462.584 643.5,462C 651.755,470.121 652.588,478.954 646,488.5C 641,492.167 636.667,496.5 633,501.5C 631.241,504.608 630.408,507.941 630.5,511.5C 629.167,511.5 627.833,511.5 626.5,511.5C 626.423,503.37 629.756,496.87 636.5,492C 634.5,491.333 632.5,491.333 630.5,492C 627.936,493.396 625.269,494.563 622.5,495.5C 622.5,494.167 622.5,492.833 622.5,491.5C 628.576,487.813 635.242,485.979 642.5,486C 645.291,481.899 646.125,477.399 645,472.5C 641.484,466.323 637.984,460.157 634.5,454C 634.759,452.739 635.426,451.739 636.5,451C 640.232,448.867 644.232,447.534 648.5,447C 665.254,445.903 681.921,446.57 698.5,449C 700.848,449.346 702.681,450.513 704,452.5C 703.288,458.932 700.621,464.599 696,469.5C 692.248,477.38 693.915,484.047 701,489.5C 702.405,483.618 704.405,477.951 707,472.5C 708.049,471.483 709.216,471.316 710.5,472C 714.257,480.432 719.59,487.765 726.5,494C 777.419,496.256 810.253,521.756 825,570.5C 834.06,610.033 826.893,646.367 803.5,679.5C 778.509,680.5 753.509,680.833 728.5,680.5 Z"/></g>
<g><path style="opacity:1" fill="#918777" d="M 647.5,450.5 C 661.504,450.333 675.504,450.5 689.5,451C 693.335,451.707 697.002,452.874 700.5,454.5C 696.063,456.261 691.397,457.428 686.5,458C 674.833,458.667 663.167,458.667 651.5,458C 646.785,457.741 642.452,456.407 638.5,454C 641.459,452.396 644.459,451.229 647.5,450.5 Z"/></g>
<g><path style="opacity:1" fill="#73ac8a" d="M 172.5,495.5 C 176.131,495.16 179.464,495.994 182.5,498C 184.463,506.91 180.796,510.243 171.5,508C 168.991,506.579 166.657,504.912 164.5,503C 168.833,502.667 173.167,502.333 177.5,502C 178.337,500.989 178.67,499.822 178.5,498.5C 175.15,498.665 171.817,498.498 168.5,498C 169.858,497.066 171.192,496.232 172.5,495.5 Z"/></g>
<g><path style="opacity:1" fill="#c9c9c9" d="M 367.5,495.5 C 379.989,496.495 392.656,496.829 405.5,496.5C 437.496,497.147 469.496,497.647 501.5,498C 498.9,500.984 497.9,504.484 498.5,508.5C 467.666,509.437 436.666,509.437 405.5,508.5C 405.167,508.5 404.833,508.5 404.5,508.5C 367.499,508.267 330.499,507.933 293.5,507.5C 292.784,502.61 294.117,498.444 297.5,495C 320.826,495.194 344.159,495.361 367.5,495.5 Z"/></g>
<g><path style="opacity:1" fill="#eda49b" d="M 528.5,509.5 C 528.737,510.791 528.404,511.791 527.5,512.5C 523.534,509.106 522.034,504.773 523,499.5C 523.893,498.289 524.726,498.289 525.5,499.5C 526.813,502.754 527.813,506.088 528.5,509.5 Z"/></g>
<g><path style="opacity:1" fill="#cbcbcb" d="M 612.5,505.5 C 611.549,506.919 611.216,508.585 611.5,510.5C 590.66,510.594 569.827,510.261 549,509.5C 542.925,509.454 537.091,508.787 531.5,507.5C 531.149,504.762 530.482,502.096 529.5,499.5C 535.333,499.167 541.167,498.833 547,498.5C 569.498,499.1 591.998,499.6 614.5,500C 613.139,501.584 612.472,503.418 612.5,505.5 Z"/></g>
<g><path style="opacity:1" fill="#e9a79f" d="M 516.5,500.5 C 517.807,504.957 519.807,509.29 522.5,513.5C 521.349,514.731 520.183,514.731 519,513.5C 516.133,509.441 515.299,505.108 516.5,500.5 Z"/></g>
<g><path style="opacity:1" fill="#4a4b4c" d="M 405.5,508.5 C 436.666,509.437 467.666,509.437 498.5,508.5C 499.708,509.234 501.041,509.567 502.5,509.5C 502.5,509.833 502.5,510.167 502.5,510.5C 469.816,511.159 437.483,510.493 405.5,508.5 Z"/></g>
<g><path style="opacity:1" fill="#d79e98" d="M 505.5,509.5 C 505.263,510.791 505.596,511.791 506.5,512.5C 507.292,513.967 507.292,515.3 506.5,516.5C 505.388,514.581 504.054,512.914 502.5,511.5C 502.5,511.167 502.5,510.833 502.5,510.5C 502.5,510.167 502.5,509.833 502.5,509.5C 502.337,507.143 502.503,504.81 503,502.5C 503.414,502.043 503.914,501.709 504.5,501.5C 505.48,504.086 505.813,506.753 505.5,509.5 Z"/></g>
<g><path style="opacity:1" fill="#746c6d" d="M 509.5,502.5 C 509.5,505.5 509.5,508.5 509.5,511.5C 508.209,511.263 507.209,511.596 506.5,512.5C 505.596,511.791 505.263,510.791 505.5,509.5C 506.5,509.5 507.5,509.5 508.5,509.5C 508.198,506.941 508.532,504.607 509.5,502.5 Z"/></g>
<g><path style="opacity:1" fill="#636467" d="M 404.5,508.5 C 404.833,508.5 405.167,508.5 405.5,508.5C 437.483,510.493 469.816,511.159 502.5,510.5C 502.5,510.833 502.5,511.167 502.5,511.5C 470.329,511.168 438.329,511.502 406.5,512.5C 369.166,512.19 331.833,511.857 294.5,511.5C 331.345,511.165 368.011,510.165 404.5,508.5 Z"/></g>
<g><path style="opacity:1" fill="#6c6c70" d="M 612.5,505.5 C 612.5,507.167 612.5,508.833 612.5,510.5C 613.5,510.5 614.5,510.5 615.5,510.5C 615.216,508.585 615.549,506.919 616.5,505.5C 616.5,507.5 616.5,509.5 616.5,511.5C 587.01,510.852 557.677,511.519 528.5,513.5C 527.893,513.376 527.56,513.043 527.5,512.5C 528.404,511.791 528.737,510.791 528.5,509.5C 530.179,509.715 531.179,509.048 531.5,507.5C 537.091,508.787 542.925,509.454 549,509.5C 569.827,510.261 590.66,510.594 611.5,510.5C 611.216,508.585 611.549,506.919 612.5,505.5 Z"/></g>
<g><path style="opacity:1" fill="#f3f3f3" d="M 294.5,511.5 C 331.833,511.857 369.166,512.19 406.5,512.5C 417.167,512.5 427.833,512.5 438.5,512.5C 439.387,566.836 440.387,621.169 441.5,675.5C 386.5,675.5 331.5,675.5 276.5,675.5C 276.281,620.828 276.614,566.161 277.5,511.5C 282.943,511.325 288.61,511.325 294.5,511.5 Z"/></g>
<g><path style="opacity:1" fill="#cacacb" d="M 626.5,511.5 C 626.263,512.791 626.596,513.791 627.5,514.5C 640.167,515.167 652.833,515.833 665.5,516.5C 664.386,517.885 663.386,519.385 662.5,521C 649.455,521.796 636.455,521.629 623.5,520.5C 619.499,518.846 617.166,515.846 616.5,511.5C 616.5,509.5 616.5,507.5 616.5,505.5C 617.483,501.531 619.483,498.198 622.5,495.5C 625.269,494.563 627.936,493.396 630.5,492C 632.5,491.333 634.5,491.333 636.5,492C 629.756,496.87 626.423,503.37 626.5,511.5 Z"/></g>
<g><path style="opacity:1" fill="#353535" d="M 626.5,511.5 C 627.833,511.5 629.167,511.5 630.5,511.5C 644.5,511.5 658.5,511.5 672.5,511.5C 672.509,513.308 672.009,514.975 671,516.5C 668.833,519.333 666.667,522.167 664.5,525C 654.5,525.333 644.5,525.667 634.5,526C 638.182,534.531 642.515,542.698 647.5,550.5C 654.922,551.942 662.422,552.609 670,552.5C 677.901,552.928 685.568,551.928 693,549.5C 700.927,537.886 706.427,525.219 709.5,511.5C 710.833,511.5 712.167,511.5 713.5,511.5C 712.624,514.799 712.457,518.132 713,521.5C 721.166,532.831 727.5,545.165 732,558.5C 734.253,568.057 734.92,577.724 734,587.5C 732.933,589.283 731.433,589.783 729.5,589C 723.546,573.21 712.879,561.71 697.5,554.5C 693.914,574.435 690.747,594.435 688,614.5C 684.914,632.631 687.914,649.631 697,665.5C 699.797,669.299 702.964,672.799 706.5,676C 713.826,676.5 721.159,676.666 728.5,676.5C 728.5,677.833 728.5,679.167 728.5,680.5C 708.156,680.833 687.822,680.5 667.5,679.5C 641.066,641.415 635.4,600.415 650.5,556.5C 648.659,555.77 646.825,555.103 645,554.5C 639.279,545.724 634.612,536.391 631,526.5C 628.286,525.004 625.453,524.004 622.5,523.5C 622.263,522.209 622.596,521.209 623.5,520.5C 636.455,521.629 649.455,521.796 662.5,521C 663.386,519.385 664.386,517.885 665.5,516.5C 666.043,516.44 666.376,516.107 666.5,515.5C 653.517,514.501 640.517,514.168 627.5,514.5C 626.596,513.791 626.263,512.791 626.5,511.5 Z"/></g>
<g><path style="opacity:1" fill="#fdae66" d="M 769.5,625.5 C 768.523,622.713 768.19,619.713 768.5,616.5C 772.171,605.848 771.004,595.848 765,586.5C 763.604,584.473 761.938,584.14 760,585.5C 755.679,597.809 750.012,609.476 743,620.5C 740.926,627.656 739.926,634.989 740,642.5C 738.672,639.214 737.339,635.881 736,632.5C 734.286,631.075 732.953,631.408 732,633.5C 726.576,648.126 727.41,662.293 734.5,676C 732.527,676.495 730.527,676.662 728.5,676.5C 721.159,676.666 713.826,676.5 706.5,676C 702.964,672.799 699.797,669.299 697,665.5C 687.914,649.631 684.914,632.631 688,614.5C 690.747,594.435 693.914,574.435 697.5,554.5C 712.879,561.71 723.546,573.21 729.5,589C 731.433,589.783 732.933,589.283 734,587.5C 734.92,577.724 734.253,568.057 732,558.5C 727.5,545.165 721.166,532.831 713,521.5C 712.457,518.132 712.624,514.799 713.5,511.5C 713.663,509.143 713.497,506.81 713,504.5C 710.662,500.014 708.162,495.681 705.5,491.5C 706.358,487.398 707.525,483.398 709,479.5C 714.746,487.917 721.246,495.75 728.5,503C 743.223,514.05 757.056,526.217 770,539.5C 785.675,557.885 792.508,579.218 790.5,603.5C 791.833,603.5 793.167,603.5 794.5,603.5C 802.144,591.395 806.31,578.061 807,563.5C 813.9,572.75 819.567,582.75 824,593.5C 826.661,624.026 818.828,651.526 800.5,676C 797.5,676.667 794.5,676.667 791.5,676C 797.023,668.741 799.19,660.574 798,651.5C 792.983,639.133 787.15,627.133 780.5,615.5C 779.635,614.417 778.635,614.251 777.5,615C 773.825,617.828 771.158,621.328 769.5,625.5 Z"/></g>
<g><path style="opacity:1" fill="#ec98dc" d="M 197.5,512.5 C 200.238,511.965 202.072,512.965 203,515.5C 203.667,518.167 203.667,520.833 203,523.5C 200.379,527.633 198.379,527.299 197,522.5C 196.341,519.112 196.508,515.779 197.5,512.5 Z"/></g>
<g><path style="opacity:1" fill="#ebada7" d="M 511.5,501.5 C 511.876,505.966 512.876,510.299 514.5,514.5C 514.043,515.298 513.376,515.631 512.5,515.5C 511.488,514.128 510.488,512.795 509.5,511.5C 509.5,508.5 509.5,505.5 509.5,502.5C 509.711,500.576 510.377,500.243 511.5,501.5 Z"/></g>
<g><path style="opacity:0.205" fill="#b7b7b7" d="M 533.5,514.5 C 542.009,513.179 550.675,513.179 559.5,514.5C 559.376,515.107 559.043,515.44 558.5,515.5C 550.35,514.507 542.017,514.174 533.5,514.5 Z"/></g>
<g><path style="opacity:1" fill="#737373" d="M 627.5,514.5 C 640.517,514.168 653.517,514.501 666.5,515.5C 666.376,516.107 666.043,516.44 665.5,516.5C 652.833,515.833 640.167,515.167 627.5,514.5 Z"/></g>
<g><path style="opacity:1" fill="#e897d8" d="M 184.5,517.5 C 191.186,518.665 194.186,522.498 193.5,529C 188.268,528.614 184.934,525.781 183.5,520.5C 183.685,519.416 184.018,518.416 184.5,517.5 Z"/></g>
<g><path style="opacity:1" fill="#e996d9" d="M 211.5,518.5 C 213.167,518.5 214.833,518.5 216.5,518.5C 215.849,525.497 212.182,528.83 205.5,528.5C 206.003,524.144 208.003,520.811 211.5,518.5 Z"/></g>
<g><path style="opacity:1" fill="#ec99dc" d="M 126.5,523.5 C 128.39,523.297 129.89,523.963 131,525.5C 131.607,529.537 131.44,533.537 130.5,537.5C 128.61,537.703 127.11,537.037 126,535.5C 123.993,531.273 124.159,527.273 126.5,523.5 Z"/></g>
<g><path style="opacity:0.816" fill="#777777" d="M 269.5,509.5 C 271.781,509.077 273.448,509.744 274.5,511.5C 274.821,516.695 274.487,521.695 273.5,526.5C 273.5,521.167 273.5,515.833 273.5,510.5C 271.901,510.768 270.568,510.434 269.5,509.5 Z"/></g>
<g><path style="opacity:1" fill="#e996d9" d="M 112.5,528.5 C 119.053,529.726 122.387,533.726 122.5,540.5C 115.332,539.423 111.998,535.423 112.5,528.5 Z"/></g>
<g><path style="opacity:1" fill="#e696d6" d="M 141.5,528.5 C 145.071,528.408 146.238,530.074 145,533.5C 143.471,534.729 142.304,536.229 141.5,538C 134.167,542.325 132.334,540.825 136,533.5C 137.73,531.598 139.563,529.931 141.5,528.5 Z"/></g>
<g><path style="opacity:1" fill="#efefef" d="M 197.5,530.5 C 203.313,530.062 204.98,532.562 202.5,538C 195.745,538.756 194.078,536.256 197.5,530.5 Z"/></g>
<g><path style="opacity:1" fill="#ee99de" d="M 180.5,531.5 C 184.007,531.307 187.34,531.973 190.5,533.5C 191.429,534.689 191.762,536.022 191.5,537.5C 187.537,538.44 183.537,538.607 179.5,538C 176.777,535.341 177.11,533.175 180.5,531.5 Z"/></g>
<g><path style="opacity:1" fill="#eb98db" d="M 212.5,531.5 C 216.741,530.75 220.074,532.083 222.5,535.5C 221.91,536.799 220.91,537.632 219.5,538C 216.5,538.667 213.5,538.667 210.5,538C 206.387,534.5 207.054,532.334 212.5,531.5 Z"/></g>
<g><path style="opacity:1" fill="#ea97da" d="M 205.5,540.5 C 213.136,540.966 217.136,544.966 217.5,552.5C 210.552,551.552 206.552,547.552 205.5,540.5 Z"/></g>
<g><path style="opacity:1" fill="#f2f2f2" d="M 125.5,541.5 C 132.004,541.138 133.671,543.638 130.5,549C 124.785,549.401 123.119,546.901 125.5,541.5 Z"/></g>
<g><path style="opacity:1" fill="#e695d7" d="M 192.5,540.5 C 193.497,540.47 194.164,540.97 194.5,542C 192.773,548.234 188.773,551.734 182.5,552.5C 182.298,550.011 182.798,547.677 184,545.5C 186.682,543.415 189.516,541.748 192.5,540.5 Z"/></g>
<g><path style="opacity:1" fill="#ec99dc" d="M 107.5,542.5 C 110.187,542.336 112.854,542.503 115.5,543C 120.736,544.115 121.403,546.115 117.5,549C 114.5,549.667 111.5,549.667 108.5,549C 105.118,547.13 104.784,544.964 107.5,542.5 Z"/></g>
<g><path style="opacity:1" fill="#ec99dc" d="M 138.5,542.5 C 142.584,542.043 146.417,542.71 150,544.5C 150.49,545.793 150.657,547.127 150.5,548.5C 146.869,549.412 143.203,549.579 139.5,549C 136.118,547.13 135.784,544.964 138.5,542.5 Z"/></g>
<g><path style="opacity:1" fill="#ea97da" d="M 198.5,542.5 C 202.312,543.078 203.979,545.411 203.5,549.5C 203.75,553 202.417,555.666 199.5,557.5C 197.109,555.634 196.109,553.134 196.5,550C 196.409,547.225 197.076,544.725 198.5,542.5 Z"/></g>
<g><path style="opacity:1" fill="#e696d7" d="M 133.5,550.5 C 141.02,551.684 145.02,556.017 145.5,563.5C 141.975,563.654 139.141,562.321 137,559.5C 135.729,556.516 134.562,553.516 133.5,550.5 Z"/></g>
<g><path style="opacity:1" fill="#e696d7" d="M 120.5,551.5 C 121.552,551.351 122.552,551.517 123.5,552C 121.46,558.546 117.126,562.379 110.5,563.5C 110.144,560.436 110.977,557.769 113,555.5C 115.514,553.996 118.014,552.662 120.5,551.5 Z"/></g>
<g><path style="opacity:1" fill="#e998d9" d="M 127.5,553.5 C 128.675,553.281 129.675,553.614 130.5,554.5C 131.593,558.108 131.76,561.775 131,565.5C 130.221,566.728 129.221,567.728 128,568.5C 123.567,563.707 123.4,558.707 127.5,553.5 Z"/></g>
<g><path style="opacity:0.035" fill="#b3b3b3" d="M 119.5,564.5 C 119.56,563.957 119.893,563.624 120.5,563.5C 121.386,564.325 121.719,565.325 121.5,566.5C 120.833,565.833 120.167,565.167 119.5,564.5 Z"/></g>
<g><path style="opacity:1" fill="#74a989" d="M 164.5,566.5 C 171.739,566.292 177.072,569.458 180.5,576C 176.289,575.742 172.122,574.909 168,573.5C 166.054,573.763 165.388,574.763 166,576.5C 169.88,577.43 173.714,578.596 177.5,580C 171.355,581.588 166.189,580.088 162,575.5C 160.927,571.9 161.76,568.9 164.5,566.5 Z"/></g>
<g><path style="opacity:1" fill="#74ab8a" d="M 190.5,580.5 C 194.889,579.088 199.222,579.588 203.5,582C 207.367,585.418 207.367,588.751 203.5,592C 199.705,592.837 196.039,592.504 192.5,591C 191.023,588.555 189.19,586.388 187,584.5C 186.333,583.833 186.333,583.167 187,582.5C 190.791,583.908 194.625,585.241 198.5,586.5C 201.185,586.292 201.851,585.125 200.5,583C 197.148,582.162 193.815,581.329 190.5,580.5 Z"/></g>
<g><path style="opacity:1" fill="#72ab89" d="M 121.5,590.5 C 126.121,589.993 130.454,590.826 134.5,593C 131.5,593.333 128.5,593.667 125.5,594C 124.663,595.011 124.33,596.178 124.5,597.5C 128.182,597.335 131.848,597.501 135.5,598C 131.785,601.31 127.452,602.31 122.5,601C 118.983,597.777 118.65,594.277 121.5,590.5 Z"/></g>
<g><path style="opacity:1" fill="#73ae8b" d="M 150.5,590.5 C 153.5,590.5 156.5,590.5 159.5,590.5C 159.5,594.167 159.5,597.833 159.5,601.5C 154.539,602.313 150.206,601.147 146.5,598C 150.089,597.793 153.589,597.293 157,596.5C 157.617,595.551 157.451,594.718 156.5,594C 153.167,593.667 149.833,593.333 146.5,593C 148.066,592.392 149.4,591.558 150.5,590.5 Z"/></g>
<g><path style="opacity:1" fill="#948a7b" d="M 148.5,606.5 C 152.5,606.5 156.5,606.5 160.5,606.5C 160.5,613.167 160.5,619.833 160.5,626.5C 156.233,626.248 152.066,625.581 148,624.5C 146.515,618.924 145.682,613.257 145.5,607.5C 146.791,607.737 147.791,607.404 148.5,606.5 Z"/></g>
<g><path style="opacity:1" fill="#91887a" d="M 163.5,606.5 C 166.833,606.5 170.167,606.5 173.5,606.5C 172.633,612.635 171.133,618.635 169,624.5C 167.599,626.192 165.766,626.859 163.5,626.5C 163.5,619.833 163.5,613.167 163.5,606.5 Z"/></g>
<g><path style="opacity:1" fill="#928879" d="M 177.5,607.5 C 182.983,607.786 187.983,609.452 192.5,612.5C 195.08,614.956 195.08,617.456 192.5,620C 186.269,623.391 179.602,625.225 172.5,625.5C 174.166,619.501 175.833,613.501 177.5,607.5 Z"/></g>
<g><path style="opacity:1" fill="#908778" d="M 140.5,608.5 C 142.664,613.126 143.664,618.126 143.5,623.5C 140.148,623.216 137.148,622.05 134.5,620C 131.689,616.706 132.022,613.706 135.5,611C 137.315,610.243 138.981,609.41 140.5,608.5 Z"/></g>
<g><path style="opacity:1" fill="#373737" d="M 274.5,511.5 C 275.5,511.5 276.5,511.5 277.5,511.5C 276.614,566.161 276.281,620.828 276.5,675.5C 297.671,676.167 319.004,676.833 340.5,677.5C 340.863,678.183 341.196,678.85 341.5,679.5C 319.5,679.5 297.5,679.5 275.5,679.5C 275.168,730.003 275.501,780.336 276.5,830.5C 294.833,830.5 313.167,830.5 331.5,830.5C 334.022,796.041 337.355,761.708 341.5,727.5C 342.5,727.5 343.5,727.5 344.5,727.5C 344.5,728.5 344.5,729.5 344.5,730.5C 341.598,764.851 338.432,799.184 335,833.5C 334.617,834.056 334.117,834.389 333.5,834.5C 331.473,834.338 329.473,834.505 327.5,835C 328.044,835.717 328.711,836.217 329.5,836.5C 329.833,836.5 330.167,836.5 330.5,836.5C 343.759,847.256 356.259,858.922 368,871.5C 368.49,872.793 368.657,874.127 368.5,875.5C 336.5,875.5 304.5,875.5 272.5,875.5C 272.5,784.833 272.5,694.167 272.5,603.5C 272.328,577.824 272.661,552.157 273.5,526.5C 274.487,521.695 274.821,516.695 274.5,511.5 Z"/></g>
<g><path style="opacity:1" fill="#fbcb51" d="M 762.5,592.5 C 765.307,594.958 766.641,598.125 766.5,602C 762.825,613.455 762.658,624.955 766,636.5C 766.691,639.266 768.191,639.933 770.5,638.5C 770.905,632.686 772.739,627.353 776,622.5C 776.718,621.549 777.551,621.383 778.5,622C 783.438,630.606 787.938,639.44 792,648.5C 795.248,659.005 793.081,668.172 785.5,676C 770.5,676.667 755.5,676.667 740.5,676C 732.458,665.93 730.458,654.763 734.5,642.5C 737.4,648.082 741.733,651.749 747.5,653.5C 747.192,649.405 746.359,645.405 745,641.5C 744.333,637.5 744.333,633.5 745,629.5C 750.839,617.155 756.673,604.822 762.5,592.5 Z"/></g>
<g><path style="opacity:1" fill="#c3a182" d="M 768.5,616.5 C 768.19,619.713 768.523,622.713 769.5,625.5C 769.217,626.289 768.717,626.956 768,627.5C 767.19,623.642 767.357,619.976 768.5,616.5 Z"/></g>
<g><path style="opacity:1" fill="#f0e0c1" d="M 134.5,625.5 C 153.279,632.449 172.279,632.115 191.5,624.5C 189.729,631.333 187.562,638.333 185,645.5C 182.436,657.51 183.436,669.177 188,680.5C 194.896,690.626 199.896,701.626 203,713.5C 203.81,724.254 203.143,734.921 201,745.5C 196.967,764.678 191.8,783.512 185.5,802C 171.575,806.133 157.575,806.467 143.5,803C 142.572,802.612 141.905,801.945 141.5,801C 132.508,775.707 126.841,749.707 124.5,723C 124.442,717.435 124.942,711.935 126,706.5C 129.791,697.586 134.124,688.919 139,680.5C 146.141,661.368 144.641,643.035 134.5,625.5 Z"/></g>
<g><path style="opacity:1" fill="#3f5f73" d="M 341.5,679.5 C 342.833,679.5 344.167,679.5 345.5,679.5C 345.815,683.371 345.482,687.038 344.5,690.5C 321.833,690.5 299.167,690.5 276.5,690.5C 276.5,737.167 276.5,783.833 276.5,830.5C 275.501,780.336 275.168,730.003 275.5,679.5C 297.5,679.5 319.5,679.5 341.5,679.5 Z"/></g>
<g><path style="opacity:1" fill="#395f76" d="M 406.5,679.5 C 418.5,679.5 430.5,679.5 442.5,679.5C 442.5,682.833 442.5,686.167 442.5,689.5C 420.167,689.5 397.833,689.5 375.5,689.5C 374.833,686.167 374.167,682.833 373.5,679.5C 384.5,679.5 395.5,679.5 406.5,679.5 Z"/></g>
<g><path style="opacity:0.995" fill="#48484a" d="M 276.5,675.5 C 331.5,675.5 386.5,675.5 441.5,675.5C 430.012,676.495 418.345,676.828 406.5,676.5C 406.5,677.5 406.5,678.5 406.5,679.5C 395.5,679.5 384.5,679.5 373.5,679.5C 374.167,682.833 374.833,686.167 375.5,689.5C 377.165,702.162 378.831,714.828 380.5,727.5C 379.167,727.5 377.833,727.5 376.5,727.5C 373.931,712.616 371.931,697.616 370.5,682.5C 370.5,681.5 370.5,680.5 370.5,679.5C 363.087,678.872 356.087,679.539 349.5,681.5C 348.476,698.041 346.809,714.374 344.5,730.5C 344.5,729.5 344.5,728.5 344.5,727.5C 343.5,727.5 342.5,727.5 341.5,727.5C 342.831,715.194 343.831,702.861 344.5,690.5C 345.482,687.038 345.815,683.371 345.5,679.5C 344.167,679.5 342.833,679.5 341.5,679.5C 341.196,678.85 340.863,678.183 340.5,677.5C 319.004,676.833 297.671,676.167 276.5,675.5 Z"/></g>
<g><path style="opacity:0.176" fill="#c0c1c6" d="M 370.5,682.5 C 363.698,680.193 356.698,679.86 349.5,681.5C 356.087,679.539 363.087,678.872 370.5,679.5C 370.5,680.5 370.5,681.5 370.5,682.5 Z"/></g>
<g><path style="opacity:1" fill="#5a90b9" d="M 375.5,689.5 C 397.833,689.5 420.167,689.5 442.5,689.5C 444.781,737.137 446.114,784.804 446.5,832.5C 429.487,832.833 412.487,832.499 395.5,831.5C 389.467,796.996 384.467,762.329 380.5,727.5C 378.831,714.828 377.165,702.162 375.5,689.5 Z"/></g>
<g><path style="opacity:1" fill="#5a90b9" d="M 344.5,690.5 C 343.831,702.861 342.831,715.194 341.5,727.5C 337.355,761.708 334.022,796.041 331.5,830.5C 313.167,830.5 294.833,830.5 276.5,830.5C 276.5,783.833 276.5,737.167 276.5,690.5C 299.167,690.5 321.833,690.5 344.5,690.5 Z"/></g>
<g><path style="opacity:0.282" fill="#aeaeae" d="M 599.5,721.5 C 600.289,721.783 600.956,722.283 601.5,723C 590.505,723.5 579.505,723.667 568.5,723.5C 578.833,722.833 589.167,722.167 599.5,721.5 Z"/></g>
<g><path style="opacity:0.999" fill="#393939" d="M 406.5,512.5 C 438.329,511.502 470.329,511.168 502.5,511.5C 504.054,512.914 505.388,514.581 506.5,516.5C 507.292,515.3 507.292,513.967 506.5,512.5C 507.209,511.596 508.209,511.263 509.5,511.5C 510.488,512.795 511.488,514.128 512.5,515.5C 512.5,516.5 512.5,517.5 512.5,518.5C 507.104,521.261 502.771,519.928 499.5,514.5C 494.208,513.505 488.875,513.172 483.5,513.5C 469.677,512.504 455.677,512.171 441.5,512.5C 441.194,515.385 441.527,518.052 442.5,520.5C 444.472,624.374 447.472,728.207 451.5,832C 451.13,835.442 449.13,837.109 445.5,837C 447.717,838.723 450.05,840.223 452.5,841.5C 463.694,851.188 474.527,861.521 485,872.5C 485.483,873.448 485.649,874.448 485.5,875.5C 453.832,875.667 422.165,875.5 390.5,875C 389.381,861.896 389.381,848.729 390.5,835.5C 385.74,799.515 381.074,763.515 376.5,727.5C 377.833,727.5 379.167,727.5 380.5,727.5C 384.467,762.329 389.467,796.996 395.5,831.5C 412.487,832.499 429.487,832.833 446.5,832.5C 446.114,784.804 444.781,737.137 442.5,689.5C 442.5,686.167 442.5,682.833 442.5,679.5C 430.5,679.5 418.5,679.5 406.5,679.5C 406.5,678.5 406.5,677.5 406.5,676.5C 418.345,676.828 430.012,676.495 441.5,675.5C 440.387,621.169 439.387,566.836 438.5,512.5C 427.833,512.5 417.167,512.5 406.5,512.5 Z"/></g>
<g><path style="opacity:0.782" fill="#828282" d="M 483.5,513.5 C 469.833,513.5 456.167,513.5 442.5,513.5C 442.5,515.833 442.5,518.167 442.5,520.5C 441.527,518.052 441.194,515.385 441.5,512.5C 455.677,512.171 469.677,512.504 483.5,513.5 Z"/></g>
<g><path style="opacity:1" fill="#cdcdcd" d="M 572.5,727.5 C 591.167,727.5 609.833,727.5 628.5,727.5C 718.833,727.5 809.167,727.5 899.5,727.5C 899.5,765.167 899.5,802.833 899.5,840.5C 790.5,840.5 681.5,840.5 572.5,840.5C 572.5,802.833 572.5,765.167 572.5,727.5 Z"/></g>
<g><path style="opacity:0.906" fill="#d7d7d7" d="M 133.5,790.5 C 135.592,795.606 137.592,800.772 139.5,806C 155.925,810.81 172.258,810.477 188.5,805C 189.697,800.562 191.363,796.396 193.5,792.5C 201.686,793.676 208.519,797.343 214,803.5C 215.936,806.674 215.603,809.674 213,812.5C 204.69,819.053 195.19,822.887 184.5,824C 165.955,826.659 147.622,825.659 129.5,821C 122.933,819.135 117.433,815.635 113,810.5C 111.837,805.655 113.337,801.821 117.5,799C 122.267,796.283 127.267,794.116 132.5,792.5C 133.298,792.043 133.631,791.376 133.5,790.5 Z"/></g>
<g><path style="opacity:0.11" fill="#bababa" d="M 333.5,834.5 C 332.167,835.167 330.833,835.833 329.5,836.5C 328.711,836.217 328.044,835.717 327.5,835C 329.473,834.505 331.473,834.338 333.5,834.5 Z"/></g>
<g><path style="opacity:0.952" fill="#d5d5d5" d="M 272.5,603.5 C 272.5,694.167 272.5,784.833 272.5,875.5C 304.5,875.5 336.5,875.5 368.5,875.5C 368.657,874.127 368.49,872.793 368,871.5C 356.259,858.922 343.759,847.256 330.5,836.5C 350.491,835.764 370.491,835.43 390.5,835.5C 389.381,848.729 389.381,861.896 390.5,875C 422.165,875.5 453.832,875.667 485.5,875.5C 485.649,874.448 485.483,873.448 485,872.5C 474.527,861.521 463.694,851.188 452.5,841.5C 473.37,843.884 493.37,849.384 512.5,858C 517.667,860.5 521.5,864.333 524,869.5C 524.425,875.153 522.258,879.653 517.5,883C 501.033,892.378 483.367,898.378 464.5,901C 403.557,910.61 342.557,910.943 281.5,902C 262.234,899.268 243.901,893.602 226.5,885C 221.231,882.075 217.897,877.741 216.5,872C 217.217,867.9 219.217,864.567 222.5,862C 237.61,852.907 253.943,847.073 271.5,844.5C 271.167,763.998 271.501,683.665 272.5,603.5 Z"/></g>
<g><path style="opacity:1" fill="#aaaaaa" d="M 571.5,727.5 C 571.833,727.5 572.167,727.5 572.5,727.5C 572.5,765.167 572.5,802.833 572.5,840.5C 681.5,840.5 790.5,840.5 899.5,840.5C 790.335,841.499 681.001,841.833 571.5,841.5C 571.5,803.5 571.5,765.5 571.5,727.5 Z"/></g>
<g><path style="opacity:0.962" fill="#d6d6d6" d="M 569.5,845.5 C 680.5,845.5 791.5,845.5 902.5,845.5C 898.93,850.802 894.264,854.969 888.5,858C 860.864,868.795 832.197,875.128 802.5,877C 740.445,882.986 678.778,880.319 617.5,869C 603.786,866.309 590.786,861.642 578.5,855C 574.592,852.594 571.592,849.428 569.5,845.5 Z"/></g>
<g><path style="opacity:1" fill="#5b5b5b" d="M 361.5,870.5 C 362.043,870.56 362.376,870.893 362.5,871.5C 333.839,872.667 305.172,872.833 276.5,872C 305.003,871.832 333.336,871.332 361.5,870.5 Z"/></g>
<g><path style="opacity:1" fill="#595959" d="M 392.5,860.5 C 393.482,863.962 393.815,867.629 393.5,871.5C 421.741,871.828 449.907,871.495 478,870.5C 478.5,871 479,871.5 479.5,872C 450.502,872.5 421.502,872.667 392.5,872.5C 392.5,868.5 392.5,864.5 392.5,860.5 Z"/></g>
</svg>
